# xmcd
#
# Track frame offsets:
#	150
#	11373
#	30443
#	49900
#	65795
#	81642
#	102290
#	119475
#	131895
#	156700
#	172432
#	186279
#	203239
#	225544
#	248438
#	265669
#	281755
#
# Disc length: 3962 seconds
#
# Revision: 1
# Processed by: cddbd v1.5.2PL0 Copyright (c) Steve Scherf et al.
# Submitted via: audiograbber 1.83.01
#
DISCID=010f7811
DTITLE=Various Artist - Bob Harris Presents...Americana
DYEAR=2007
DGENRE=Americana
TTITLE0=Todd Snider - Vinyl Records
TTITLE1=John Prine - Glory Of True Love
TTITLE2=Tracy Bonham - Something Beautiful
TTITLE3=Ray Wylie Hubbard - The Beauty Way
TTITLE4=Kathleen Edwards - Back To Me
TTITLE5=James McMurtry - Childish Things
TTITLE6=Grayson Capps - Wail And Ride
TTITLE7=Sarah Harmer - I Am Aglow
TTITLE8=Patty Griffin - Top Of The World
TTITLE9=Slaid Cleaves - Wishbones
TTITLE10=Alecia Nugent - When It Comes Down To Us
TTITLE11=Hayes Carll - Wish I Hadn't Stayed So Long
TTITLE12=Alana Levandoski - Don't You Remember
TTITLE13=Eve Selis - The Ballad Of Kate Morgan
TTITLE14=Billy Joe Shaver - Freedom's Child
TTITLE15=Chris Knight - Saved By Love
TTITLE16=Alison Krauss - Stay
EXTD=
EXTT0=
EXTT1=
EXTT2=
EXTT3=
EXTT4=
EXTT5=
EXTT6=
EXTT7=
EXTT8=
EXTT9=
EXTT10=
EXTT11=
EXTT12=
EXTT13=
EXTT14=
EXTT15=
EXTT16=
PLAYORDER=
